<svg xmlns="http://www.w3.org/2000/svg" width="17.304" height="17.304" viewBox="0 0 17.304 17.304">
  <path id="calendar-plus" d="M13.7,1.442h-.721V.721a.721.721,0,0,0-1.442,0v.721H5.768V.721a.721.721,0,1,0-1.442,0v.721H3.605A3.609,3.609,0,0,0,0,5.047V13.7A3.609,3.609,0,0,0,3.605,17.3H13.7A3.609,3.609,0,0,0,17.3,13.7V5.047A3.609,3.609,0,0,0,13.7,1.442ZM3.605,2.884H13.7a2.166,2.166,0,0,1,2.163,2.163v.721H1.442V5.047A2.166,2.166,0,0,1,3.605,2.884ZM13.7,15.862H3.605A2.166,2.166,0,0,1,1.442,13.7V7.21h14.42V13.7A2.166,2.166,0,0,1,13.7,15.862Zm-2.163-4.326a.721.721,0,0,1-.721.721H9.373V13.7a.721.721,0,1,1-1.442,0V12.257H6.489a.721.721,0,1,1,0-1.442H7.931V9.373a.721.721,0,0,1,1.442,0v1.442h1.442A.721.721,0,0,1,11.536,11.536Z" fill="#23bee3"/>
</svg>
