<svg version="1.2" xmlns="http://www.w3.org/2000/svg" viewBox="0 0 14 15" width="14" height="15"><defs><clipPath clipPathUnits="userSpaceOnUse" id="cp1"><path d="m-776-372h1366v998h-1366z"/></clipPath></defs><style>.a{stroke:#000;stroke-width:.1}</style><g clip-path="url(#cp1)"><path fill-rule="evenodd" class="a" d="m12.3 4v4.7c0 1.1-0.9 2-2 2h-1.4l-3.3 2.4q-0.3 0.2-0.6 0.2-0.3 0-0.5-0.1c-0.4-0.2-0.6-0.6-0.6-1v-1.5h-0.9c-1 0-1.9-0.9-1.9-2v-4.7c0-1.1 0.9-2 1.9-2h7.3c1.1 0 2 0.9 2 2zm-0.8 0c0-0.7-0.5-1.2-1.2-1.2h-7.3c-0.6 0-1.2 0.5-1.2 1.2v4.7c0 0.7 0.6 1.3 1.2 1.3h1.3c0.2 0 0.3 0.1 0.3 0.3v1.9q0 0.2 0.2 0.3 0.2 0.1 0.4 0l3.4-2.5q0.1 0 0.2 0h1.5c0.7 0 1.2-0.6 1.2-1.3z"/></g></svg>