<svg xmlns="http://www.w3.org/2000/svg" width="17" height="17" viewBox="0 0 17 17">
  <path id="users-alt" d="M8.5,11.333A2.833,2.833,0,1,1,11.333,8.5,2.833,2.833,0,0,1,8.5,11.333Zm0-4.25A1.417,1.417,0,1,0,9.917,8.5,1.417,1.417,0,0,0,8.5,7.083Zm4.25,9.208a4.25,4.25,0,1,0-8.5,0,.708.708,0,0,0,1.417,0,2.833,2.833,0,1,1,5.667,0,.708.708,0,0,0,1.417,0Zm0-10.625a2.833,2.833,0,1,1,2.833-2.833A2.833,2.833,0,0,1,12.75,5.667Zm0-4.25a1.417,1.417,0,1,0,1.417,1.417A1.417,1.417,0,0,0,12.75,1.417ZM17,10.625a4.254,4.254,0,0,0-4.25-4.25.708.708,0,1,0,0,1.417,2.833,2.833,0,0,1,2.833,2.833.708.708,0,1,0,1.417,0ZM4.25,5.667A2.833,2.833,0,1,1,7.083,2.833,2.833,2.833,0,0,1,4.25,5.667Zm0-4.25A1.417,1.417,0,1,0,5.667,2.833,1.417,1.417,0,0,0,4.25,1.417ZM1.417,10.625A2.833,2.833,0,0,1,4.25,7.792a.708.708,0,0,0,0-1.417A4.254,4.254,0,0,0,0,10.625a.708.708,0,0,0,1.417,0Z" fill="#23bee3"/>
</svg>
