<svg id="comment-alt" xmlns="http://www.w3.org/2000/svg" width="13.086" height="13.086" viewBox="0 0 13.086 13.086">
  <path id="Path_15533" data-name="Path 15533" d="M10.9,0H2.181A2.181,2.181,0,0,0,0,2.181V8.724A2.181,2.181,0,0,0,2.181,10.9H3.762l2.427,2.052a.545.545,0,0,0,.7,0L9.324,10.9H10.9a2.181,2.181,0,0,0,2.181-2.181V2.181A2.181,2.181,0,0,0,10.9,0ZM12,8.724a1.09,1.09,0,0,1-1.09,1.09H9.324a1.09,1.09,0,0,0-.7.258L6.543,11.826,4.467,10.072h0a1.09,1.09,0,0,0-.705-.258H2.181a1.09,1.09,0,0,1-1.09-1.09V2.181a1.09,1.09,0,0,1,1.09-1.09H10.9A1.09,1.09,0,0,1,12,2.181Z" fill="#4caa4d"/>
  <path id="Path_15534" data-name="Path 15534" d="M6.545,6.09H9.271a.545.545,0,0,0,0-1.09H6.545a.545.545,0,0,0,0,1.09Z" transform="translate(-2.729 -2.274)" fill="#4caa4d"/>
  <path id="Path_15535" data-name="Path 15535" d="M12,9H6.545a.545.545,0,1,0,0,1.09H12A.545.545,0,1,0,12,9Z" transform="translate(-2.729 -4.093)" fill="#4caa4d"/>
  <path id="Path_15536" data-name="Path 15536" d="M12,13H6.545a.545.545,0,1,0,0,1.09H12A.545.545,0,1,0,12,13Z" transform="translate(-2.729 -5.912)" fill="#4caa4d"/>
</svg>
