<svg xmlns="http://www.w3.org/2000/svg" xmlns:xlink="http://www.w3.org/1999/xlink" width="298.716" height="244.391" viewBox="0 0 298.716 244.391">
  <defs>
    <clipPath id="clip-path">
      <rect id="Rectangle_2809" data-name="Rectangle 2809" width="298.716" height="244.391" fill="#23bee3"/>
    </clipPath>
  </defs>
  <g id="Group_2941" data-name="Group 2941" transform="translate(0 0)">
    <g id="Group_2940" data-name="Group 2940" transform="translate(0 0)" clip-path="url(#clip-path)">
      <path id="Path_15568" data-name="Path 15568" d="M164.98,106.659A67.418,67.418,0,1,1,97.561,39.514a67.284,67.284,0,0,1,67.419,67.145" transform="translate(47.855 65.502)" fill="#23bee3"/>
      <path id="Path_15569" data-name="Path 15569" d="M107.035,54.663c.863.724-11.732,18.221-28.125,39.076-3.5,4.378-6.847,8.579-9.93,12.441l-1.357,1.7-1.458-1.551C53.362,92.7,44.619,82.586,45.24,81.945s10.416,8.392,23.609,21.615l-2.815.152,9.752-12.593c16.393-20.855,30.386-37.179,31.249-36.456" transform="translate(68.791 91.376)" fill="#fff"/>
      <path id="Path_15570" data-name="Path 15570" d="M100.367,59.281c-2-7.315-11.2-6.6-11.2-6.6l.252,5.086c5.323-.947,8.629,5.493,8.629,5.493Z" transform="translate(140.442 87.412)" fill="#23bee4"/>
      <path id="Path_15571" data-name="Path 15571" d="M24.536,65.048c-2-7.315-11.2-6.6-11.2-6.6l.255,5.086c5.32-.947,8.627,5.493,8.627,5.493Z" transform="translate(20.999 96.985)" fill="#e0e0e0"/>
      <path id="Path_15572" data-name="Path 15572" d="M61.3,31.111c10.676,3.341,17.32-9.379,17.32-9.379l-6.5-3.822C68.944,25.7,58.28,24.8,58.28,24.8Z" transform="translate(91.798 29.729)" fill="#e0e0e0"/>
      <path id="Path_15573" data-name="Path 15573" d="M39.844,28.019c-4.967.545-5.562,6.988-5.562,6.988l3.324.41c-.005-3.788,4.548-5.336,4.548-5.336Z" transform="translate(53.998 46.512)" fill="#23bee4"/>
      <path id="Path_15574" data-name="Path 15574" d="M119.88,50.288c.721-5.107-5.173-7.3-5.173-7.3L113.5,46.216c3.554.934,3.876,5.873,3.876,5.873Z" transform="translate(178.774 71.362)" fill="#e0e0e0"/>
      <path id="Path_15575" data-name="Path 15575" d="M51.6,7.3C52.323,2.192,46.429,0,46.429,0L45.221,3.224C48.772,4.16,49.1,9.1,49.1,9.1Z" transform="translate(71.228 -0.001)" fill="#23bee4"/>
      <path id="Path_15576" data-name="Path 15576" d="M.055,35.816c-.894,8.007,9.376,9.946,9.376,9.946l1.854-5.238c-6.162-.577-7.051-8.073-7.051-8.073Z" transform="translate(-0.001 53.869)" fill="#23bee4"/>
      <path id="Path_15577" data-name="Path 15577" d="M89.977,27.128c4.988.3,6.585-5.966,6.585-5.966L93.346,20.2c-.59,3.737-5.323,4.5-5.323,4.5Z" transform="translate(138.646 33.538)" fill="#23bee4"/>
      <path id="Path_15578" data-name="Path 15578" d="M104.4,30.965c0,.229-1.844.415-4.118.415s-4.12-.186-4.12-.415,1.844-.415,4.12-.415,4.118.186,4.118.415" transform="translate(151.472 50.713)" fill="#e0e0e0"/>
      <path id="Path_15579" data-name="Path 15579" d="M101.31,26.355c.221,0,.4,1.934.4,4.317s-.18,4.317-.4,4.317-.4-1.934-.4-4.317.18-4.317.4-4.317" transform="translate(158.942 43.749)" fill="#e0e0e0"/>
      <path id="Path_15580" data-name="Path 15580" d="M102.873,30.861c0-.229,1.844-.415,4.118-.415s4.12.186,4.12.415-1.844.415-4.12.415-4.118-.186-4.118-.415" transform="translate(162.037 50.541)" fill="#e0e0e0"/>
      <path id="Path_15581" data-name="Path 15581" d="M101.421,40.341c-.221,0-.4-1.934-.4-4.317s.18-4.317.4-4.317.4,1.934.4,4.317-.18,4.317-.4,4.317" transform="translate(159.116 52.634)" fill="#e0e0e0"/>
      <path id="Path_15582" data-name="Path 15582" d="M105.571,35.359c-.17.146-.966-.545-1.772-1.545s-1.326-1.931-1.156-2.077.963.545,1.772,1.548,1.326,1.929,1.156,2.075" transform="translate(161.623 52.65)" fill="#e0e0e0"/>
      <path id="Path_15583" data-name="Path 15583" d="M105.487,28.169c.157.162-.394,1-1.231,1.875s-1.653,1.455-1.81,1.293.4-1,1.239-1.878,1.645-1.452,1.8-1.29" transform="translate(161.321 46.715)" fill="#e0e0e0"/>
      <path id="Path_15584" data-name="Path 15584" d="M101.729,30.988c-.142.176-.906-.237-1.7-.926s-1.334-1.386-1.19-1.564.9.239,1.7.926,1.331,1.389,1.19,1.564" transform="translate(155.638 47.24)" fill="#e0e0e0"/>
      <path id="Path_15585" data-name="Path 15585" d="M101.508,31.6c.165.154-.319.982-1.082,1.843s-1.514,1.439-1.679,1.285.322-.979,1.084-1.843,1.512-1.439,1.676-1.285" transform="translate(155.488 52.414)" fill="#e0e0e0"/>
      <path id="Path_15586" data-name="Path 15586" d="M17.289,22.051c0,.229-1.844.415-4.118.415s-4.12-.186-4.12-.415,1.844-.415,4.12-.415,4.118.186,4.118.415" transform="translate(14.256 35.916)" fill="#23bee3"/>
      <path id="Path_15587" data-name="Path 15587" d="M14.195,17.441c.221,0,.4,1.934.4,4.317s-.18,4.317-.4,4.317-.4-1.934-.4-4.317.18-4.317.4-4.317" transform="translate(21.726 28.952)" fill="#23bee3"/>
      <path id="Path_15588" data-name="Path 15588" d="M15.758,21.947c0-.229,1.844-.415,4.118-.415s4.12.186,4.12.415-1.844.415-4.12.415-4.118-.186-4.118-.415" transform="translate(24.821 35.743)" fill="#23bee3"/>
      <path id="Path_15589" data-name="Path 15589" d="M14.3,31.427c-.221,0-.4-1.934-.4-4.317s.18-4.317.4-4.317.4,1.934.4,4.317-.18,4.317-.4,4.317" transform="translate(21.899 37.836)" fill="#23bee3"/>
      <path id="Path_15590" data-name="Path 15590" d="M18.456,26.446c-.17.146-.966-.545-1.774-1.545s-1.326-1.931-1.154-2.077.963.545,1.772,1.545,1.326,1.931,1.156,2.077" transform="translate(24.407 37.854)" fill="#23bee3"/>
      <path id="Path_15591" data-name="Path 15591" d="M18.372,19.255c.157.162-.394,1-1.233,1.878s-1.651,1.452-1.808,1.29.4-1,1.236-1.875,1.648-1.455,1.805-1.293" transform="translate(24.105 31.918)" fill="#23bee3"/>
      <path id="Path_15592" data-name="Path 15592" d="M14.614,22.074c-.142.176-.906-.237-1.7-.926s-1.334-1.386-1.19-1.564.9.239,1.7.926,1.331,1.389,1.19,1.564" transform="translate(18.422 32.443)" fill="#23bee3"/>
      <path id="Path_15593" data-name="Path 15593" d="M14.393,22.686c.165.154-.322.982-1.084,1.843s-1.512,1.439-1.676,1.285.319-.979,1.084-1.843,1.512-1.439,1.676-1.285" transform="translate(18.272 37.616)" fill="#23bee3"/>
    </g>
  </g>
</svg>
