<svg xmlns="http://www.w3.org/2000/svg" width="17.328" height="17.297" viewBox="0 0 17.328 17.297">
  <g id="Group_3022" data-name="Group 3022" transform="translate(-51 -205)">
    <path id="gym" d="M16.56,4.945,14.985,3.37l.684-.684a.722.722,0,1,0-1.021-1.021l-.684.684L12.389.774A2.671,2.671,0,0,0,8.7.774a2.605,2.605,0,0,0,0,3.686l1.575,1.575L6.024,10.289,4.449,8.714a2.671,2.671,0,0,0-3.685,0,2.605,2.605,0,0,0,0,3.686l1.575,1.575-.684.684a.722.722,0,1,0,1.021,1.021L3.359,15l1.576,1.575A2.606,2.606,0,1,0,8.62,12.886L7.045,11.311,11.3,7.055,12.879,8.63a2.606,2.606,0,0,0,3.685-3.685ZM7.94,14.728a1.155,1.155,0,0,1-.341.821,1.189,1.189,0,0,1-1.644,0L1.784,11.378A1.162,1.162,0,1,1,3.428,9.735L7.6,13.906a1.155,1.155,0,0,1,.341.822Zm7.6-7.119a1.189,1.189,0,0,1-1.644,0L9.725,3.438a1.162,1.162,0,1,1,1.644-1.644L15.54,5.966a1.161,1.161,0,0,1,0,1.644Z" transform="translate(51 204.963)" fill="#23bee3"/>
  </g>
</svg>
