<svg version="1.2" xmlns="http://www.w3.org/2000/svg" viewBox="0 0 13 12" width="13" height="12"><defs><clipPath clipPathUnits="userSpaceOnUse" id="cp1"><path d="m-756-374h1366v998h-1366z"/></clipPath></defs><style></style><g clip-path="url(#cp1)"><path fill-rule="evenodd" d="m5.7 1l0.6 0.6 0.6-0.6c1.3-1.3 3.5-1.3 4.8 0 1.3 1.4 1.3 3.6 0 4.9q-2.5 2.6-5 5.3-0.2 0.1-0.4 0.1-0.2 0-0.3-0.1l-5-5.3c-1.3-1.3-1.3-3.5 0-4.9 0.6-0.7 1.5-1 2.4-1 0.8 0 1.7 0.3 2.3 1zm-4.1 0.6c-0.9 1-0.9 2.7 0 3.7l4.7 4.9q2.4-2.4 4.7-4.9c1-1 1-2.6 0-3.7-0.9-1-2.4-1-3.4 0l-0.9 1q-0.2 0.2-0.4 0.2-0.2 0-0.3-0.2l-0.9-1c-0.5-0.5-1.1-0.7-1.7-0.7-0.7 0-1.3 0.2-1.8 0.7z"/></g></svg>