<svg xmlns="http://www.w3.org/2000/svg" width="12" height="14.329" viewBox="0 0 12 14.329">
  <g id="_01_align_center" transform="translate(-40.725 -0.198)">
    <path id="Path_15537" data-name="Path 15537" d="M46.725,14.527l-.416-.357c-.574-.48-5.584-4.807-5.584-7.972a6,6,0,1,1,12,0c0,3.165-5.01,7.492-5.581,7.975Zm0-13.032a4.708,4.708,0,0,0-4.7,4.7c0,1.988,3.082,5.165,4.7,6.618,1.62-1.454,4.7-4.632,4.7-6.618A4.708,4.708,0,0,0,46.725,1.5Z" fill="#23bee3"/>
    <path id="Path_15538" data-name="Path 15538" d="M172.5,134.356a2.378,2.378,0,1,1,2.378-2.378A2.378,2.378,0,0,1,172.5,134.356Zm0-3.568a1.189,1.189,0,1,0,1.189,1.189A1.189,1.189,0,0,0,172.5,130.788Z" transform="translate(-125.779 -125.779)" fill="#23bee3"/>
  </g>
</svg>
