<svg xmlns="http://www.w3.org/2000/svg" width="113" height="113" viewBox="0 0 113 113">
  <g id="Group_2901" data-name="Group 2901" transform="translate(-131 -416)">
    <g id="Ellipse_190" data-name="Ellipse 190" transform="translate(131 416)" fill="none" stroke="#eaeaea" stroke-width="1">
      <circle cx="56.5" cy="56.5" r="56.5" stroke="none"/>
      <circle cx="56.5" cy="56.5" r="56" fill="none"/>
    </g>
    <g id="camera_4_" data-name="camera (4)" transform="translate(170 455)">
      <path id="Path_15558" data-name="Path 15558" d="M28.1,5.915h-.751l-3.23-4.188A4.471,4.471,0,0,0,20.6,0H14.889a4.471,4.471,0,0,0-3.514,1.727L8.145,5.915H7.394A7.4,7.4,0,0,0,0,13.31V28.1a7.4,7.4,0,0,0,7.394,7.394H28.1A7.4,7.4,0,0,0,35.492,28.1V13.31A7.4,7.4,0,0,0,28.1,5.915ZM13.718,3.534a1.488,1.488,0,0,1,1.171-.577H20.6a1.491,1.491,0,0,1,1.171.577l1.837,2.381H11.881ZM32.535,28.1A4.437,4.437,0,0,1,28.1,32.535H7.394A4.437,4.437,0,0,1,2.958,28.1V13.31A4.437,4.437,0,0,1,7.394,8.873H28.1a4.437,4.437,0,0,1,4.437,4.437Z" fill="#adadad"/>
      <path id="Path_15559" data-name="Path 15559" d="M14.873,8a8.873,8.873,0,1,0,8.873,8.873A8.873,8.873,0,0,0,14.873,8Zm0,14.788a5.915,5.915,0,1,1,5.915-5.915A5.915,5.915,0,0,1,14.873,22.788Z" transform="translate(2.873 3.831)" fill="#adadad"/>
    </g>
  </g>
</svg>
